#!OML:ASF F:\VICON\USERDATA\INSTALL\rory3\rory3.ASF
:FULLY-SPECIFIED
:DEGREES
124
root -0.7878283979821141 17.61724617460188 19.482407773161125 3.0580498692141767 -4.145452538823987 -3.437474803018766
lfemur -24.096719715724124 4.658622992648501 -19.942598706722997
ltibia 60.657570826092375
lfoot 7.970189252460244 -11.928997137482618
ltoes -21.76274760804347
rfemur -16.460589743273204 4.493493158855289 30.49876168338342
rtibia 85.69660558474708
rfoot -1.2650194157559906 -9.341819131277537
rtoes -3.07459655272586
lowerback 15.574659404392367 1.5362698586499952 2.6405415601952056
upperback -0.49987780345504756 2.7235669203053634 1.6763438074651518
thorax -9.866035717138297 1.2829008067586776 -0.3333928849588067
lowerneck -18.541924584827754 -4.395262064367841 -2.020061025270663
upperneck 13.410609830482425 -5.91324133306154 2.493881060347458
head 8.149086596945706 -2.644905094050012 0.35407092815222896
lclavicle 1.1245391003390787e-15 -1.4766016290106928e-15
lhumerus -43.43529464668305 -14.276280126269471 96.80075547150582
lradius 116.57417938434273
lwrist 30.237370694607943
lhand -29.379989934089515 -0.6759454662488587
lfingers 7.125019999999998
lthumb -2.713105617934638 29.652525634700922
rclavicle 1.1245391004123679e-15 -1.4766016289615302e-15
rhumerus -53.33979293709813 9.127789572249258 -96.08305274416621
rradius 118.00030194890581
rwrist -15.209470439628145
rhand -19.248126385994954 42.10977802937856
rfingers 7.125019999999998
rthumb 5.790289848322184 12.613903275854865
125
root -0.7904797695979758 17.613157965590435 19.374545283899252 2.9747336527136943 -4.219374367747434 -3.4681004475728057
lfemur -23.598648881140836 4.5958523672160805 -19.951986397379816
ltibia 59.60189443601658
lfoot 8.440960396576223 -11.34150149185312
ltoes -23.139296315558752
rfemur -16.54670904306824 4.475384950773501 30.541848967795865
rtibia 85.35199950550319
rfoot -0.976838358379625 -9.37306073657383
rtoes -5.376007811790098
lowerback 15.583353598123665 1.5519283439331817 2.6524688510116623
upperback -0.5373072200719715 2.7476822261360776 1.6230278673967837
thorax -9.748114202416346 1.3013821115254858 -0.377187854298641
lowerneck -18.35408058894969 -4.453940843438504 -2.0173362493435665
upperneck 13.409167873483465 -6.017168797891546 2.534247446417972
head 8.138630202186809 -2.696656640155193 0.371010057984102
lclavicle 1.1245391003369816e-15 -1.476601629012518e-15
lhumerus -43.73408403408887 -14.536585532246608 96.84318893643967
lradius 115.98191962633153
lwrist 29.910134724952172
lhand -29.50105569163476 -0.8947950298345222
lfingers 7.125019999999998
lthumb -2.704091001025105 29.55697704384126
rclavicle 1.124539100413755e-15 -1.4766016289607644e-15
rhumerus -53.3022378719071 9.115645660084402 -95.91680029076923
rradius 117.92576978781563
rwrist -15.12353518298304
rhand -19.316839207890098 42.21006786599257
rfingers 7.125019999999998
rthumb 5.72922317940445 12.63349288722711
126
root -0.7909628271293141 17.610810320633778 19.3281987047609 2.919578689770146 -4.24032172137901 -3.4931554574502233
lfemur -23.135376259301133 4.508202141261697 -19.97021088488842
ltibia 58.6199948880705
lfoot 9.02833423182308 -10.747939382132516
ltoes -24.424520972081446
rfemur -16.603558531908767 4.455773194113242 30.620894637977436
rtibia 84.99729955869817
rfoot -0.7779906531826524 -9.593562816950106
rtoes -7.758343725164268
lowerback 15.598556110599015 1.5557987379613052 2.6796458181447007
upperback -0.5932085766956924 2.7612881337573323 1.5913290418868065
thorax -9.741317282290508 1.2975020027104214 -0.47755819994565096
lowerneck -18.122110145562278 -4.510140690880508 -2.029323021557667
upperneck 13.334757266802427 -6.093676526547339 2.585495987490879
head 8.076415486817268 -2.736047313678691 0.3964503543463887
lclavicle 1.1245391003387449e-15 -1.4766016290115311e-15
lhumerus -43.814266462730124 -14.722259204448061 96.92942366647249
lradius 115.30679262748534
lwrist 29.695223828400206
lhand -29.508176274004118 -0.9696390023572063
lfingers 7.125019999999998
lthumb -2.844164271659763 29.477905374983436
rclavicle 1.1245391004137608e-15 -1.4766016289611148e-15
rhumerus -53.311205351930674 9.065719292851075 -95.80041589643761
rradius 117.84148609156145
rwrist -15.1032620251122
rhand -19.40637248971661 42.42835513418859
rfingers 7.125019999999998
rthumb 5.70618068465065 12.859667420685806
127
root -0.7992844981992343 17.599470846874155 19.30507932684492 2.818326517365446 -4.265609806449875 -3.49826355818806
lfemur -22.67861941701363 4.437919526908707 -19.991518075592342
ltibia 57.72089727185478
lfoot 8.875135850028066 -10.936666782779598
ltoes -25.36081110328424
rfemur -16.673011136338395 4.453784344115605 30.654169020219452
rtibia 84.69141473941785
rfoot -0.5458039444006277 -9.681062334578563
rtoes -8.081033603310786
lowerback 15.679315399030182 1.5623335330061763 2.65786407771117
upperback -0.5780135072395436 2.7676695965848395 1.5498666883948675
thorax -9.633039664215094 1.3011222553630517 -0.5094436543098017
lowerneck -17.970076763526016 -4.576787563890426 -2.0388571601728502
upperneck 13.264398574576239 -6.205332595343674 2.6568924725201013
head 8.017169413772264 -2.7909109546421242 0.42853492080938405
lclavicle 1.12453910033761e-15 -1.4766016290127142e-15
lhumerus -43.713719226641366 -14.856037392602813 97.0643531638011
lradius 114.60554275228263
lwrist 29.49313596310815
lhand -29.465816842893368 -0.7760988948420713
lfingers 7.125019999999998
lthumb -3.0531184886223177 29.343235692340684
rclavicle 1.1245391004144629e-15 -1.4766016289610377e-15
rhumerus -53.328167893335284 8.989150459611942 -95.71771872715301
rradius 117.7776057048548
rwrist -15.245859123999328
rhand -19.466616864314048 42.62150071134656
rfingers 7.125019999999998
rthumb 5.699476514826648 12.953944302477513
128
root -0.8109898150685118 17.583856409886906 19.497739760959856 2.702009333734026 -4.1983243884314865 -3.449355894619507
lfemur -22.246170893903347 4.355415315494281 -20.06304731426407
ltibia 56.94793127115565
lfoot 8.93117372336521 -11.24533935525547
ltoes -25.236225913162556
rfemur -16.713113317922176 4.430035561146159 30.601312733109292
rtibia 84.45746909846609
rfoot -0.09533944315748144 -9.70815963113099
rtoes -7.148279093823632
lowerback 15.794008775774616 1.5572182179430747 2.582687278354166
upperback -0.5289328980080323 2.7665487962342548 1.511013892198344
thorax -9.555493854226812 1.3013707282099554 -0.501880912689543
lowerneck -17.777289250409403 -4.629845688990008 -2.030836278193617
upperneck 13.123434673908184 -6.290598392448173 2.7214267401840075
head 7.911900276598644 -2.8398685374040644 0.46360616718345127
lclavicle 1.124539100335082e-15 -1.4766016290147246e-15
lhumerus -43.452988955888884 -14.953254947308078 97.23447177301384
lradius 113.86071940681285
lwrist 28.85839704021714
lhand -29.36698856860337 -0.6925690674025033
lfingers 7.125019999999998
lthumb -2.866224369975642 29.54230434871015
rclavicle 1.1245391004117121e-15 -1.4766016289631933e-15
rhumerus -53.36668188880371 8.881451975644623 -95.64738577769278
rradius 117.71085065712958
rwrist -15.320197082278598
rhand -19.49803287583558 42.75365168954133
rfingers 7.125019999999998
rthumb 5.729001272921565 12.994505255520124
129
root -0.820440462717041 17.570282666471588 19.69500238120692 2.6002657965780873 -4.090757002326048 -3.3764117279834234
lfemur -21.84636642534107 4.2752406781524845 -20.15502556227146
ltibia 56.31549077294535
lfoot 9.46540624462082 -11.538462929708784
ltoes -24.014525237247277
rfemur -16.75927981194725 4.419413663650238 30.528045747195925
rtibia 84.28040008533688
rfoot 0.14543454269035205 -9.900422613755667
rtoes -7.647649027754916
lowerback 15.886678811197886 1.551016306293379 2.5045644808247736
upperback -0.5077154391032206 2.741338860403604 1.474364846844424
thorax -9.587499501677625 1.285689918648006 -0.5010607594922044
lowerneck -17.664942862633946 -4.66680399313028 -2.030374641465898
upperneck 12.938771316670163 -6.356893335058269 2.7962941123410583
head 7.797914331036482 -2.869497572920465 0.4982661448736326
lclavicle 1.1245391003350049e-15 -1.4766016290147333e-15
lhumerus -43.34989269340601 -14.96912731503623 97.41569455668453
lradius 113.12014827404248
lwrist 28.190560419565337
lhand -29.45804641560205 -0.8162555770696109
lfingers 7.125019999999998
lthumb -2.4819164315680213 29.97516667699817
rclavicle 1.124539100412009e-15 -1.4766016289629126e-15
rhumerus -53.489273492758564 8.760837190253554 -95.64116711025622
rradius 117.66037849132312
rwrist -15.312087516575204
rhand -19.54491569846465 42.63198298335324
rfingers 7.125019999999998
rthumb 5.708632813586537 12.736958662347616
130
root -0.8267790270952463 17.549944950890684 19.848516434539466 2.4870786489407273 -4.039311494191663 -3.297494337684665
lfemur -21.41353503845717 4.244414010286879 -20.252391000980687
ltibia 55.85213251828342
lfoot 10.389613640502125 -11.628073831859414
ltoes -21.678345558013223
rfemur -16.774481267890877 4.434475148558538 30.451424821036372
rtibia 84.19938837554825
rfoot 0.18530427173572317 -10.077477052111323
rtoes -9.321044773550652
lowerback 15.976440666025924 1.556132162340962 2.420134933080103
upperback -0.45122358557334397 2.707066606604686 1.3934867310829713
thorax -9.559079597984562 1.2728475649384818 -0.46919683065001017
lowerneck -17.680353427843066 -4.710939646907238 -2.0329148580699625
upperneck 12.771646567454436 -6.42829092549337 2.893425228166617
head 7.670609662702274 -2.905611269182766 0.5452482765807685
lclavicle 1.1245391003338963e-15 -1.4766016290155466e-15
lhumerus -43.13444480898634 -15.01022005797445 97.51337521126507
lradius 112.37186096545497
lwrist 27.775203088618152
lhand -29.676804128389207 -1.0228923742354317
lfingers 7.125019999999998
lthumb -2.5441823992413535 29.878332353723657
rclavicle 1.1245391004133328e-15 -1.4766016289619053e-15
rhumerus -53.56235548776494 8.693549768005472 -95.64467573238257
rradius 117.56679766488158
rwrist -15.40095771739891
rhand -19.561407969575203 42.47872916427365
rfingers 7.125019999999998
rthumb 5.7387647379434865 12.556979851698106
131
root -0.8253861903847899 17.52516803002216 20.004598212111684 2.3860890651455 -4.0299970242582575 -3.2148412390282557
lfemur -20.9999932559261 4.242447697099646 -20.355258877900287
ltibia 55.50032527654672
lfoot 10.11223518274094 -11.85771963676604
ltoes -20.93638635565614
rfemur -16.76379453214056 4.456832520745225 30.38434226105781
rtibia 84.22008244697518
rfoot 0.22644129679273384 -10.052897431692681
rtoes -8.777274667928387
lowerback 16.015520337125185 1.5650502025761237 2.342390822374028
upperback -0.41906333627242054 2.711421777212843 1.3142946462770306
thorax -9.510222700530905 1.28865187095527 -0.43327397114461097
lowerneck -17.660684456572703 -4.753827543867056 -2.0165609607073494
upperneck 12.545175591630734 -6.505575916636232 2.98931974525793
head 7.528862723488757 -2.9417282368568163 0.5900840895527492
lclavicle 1.124539100336176e-15 -1.4766016290139005e-15
lhumerus -42.81481164327509 -15.125318580565287 97.63886408070998
lradius 111.63351169520229
lwrist 27.707947709169183
lhand -29.517527858213004 -0.8098277623432433
lfingers 7.125019999999998
lthumb -2.916678076270161 29.580713449793162
rclavicle 1.1245391004111473e-15 -1.4766016289635745e-15
rhumerus -53.52537816287769 8.701320350755282 -95.61982913904549
rradius 117.41249529007482
rwrist -15.317526697790518
rhand -19.603007418625435 42.266598211013054
rfingers 7.125019999999998
rthumb 5.712570318169487 12.233254778045499
